<?xml version="1.0" encoding="UTF-8"?>
<svg width="22px" height="22px" viewBox="0 0 22 22" version="1.1" xmlns="http://www.w3.org/2000/svg" xmlns:xlink="http://www.w3.org/1999/xlink">
    <!-- Generator: Sketch 56.2 (81672) - https://sketch.com -->
    <title>iPhone 8备份 2</title>
    <desc>Created with Sketch.</desc>
    <g id="页面-1" stroke="none" stroke-width="1" fill="none" fill-rule="evenodd">
        <g id="iPhone-8备份-2" transform="translate(-111.000000, -819.000000)">
            <g id="编组-8" transform="translate(111.000000, 819.000000)">
                <g id="icon/第四页/目的地">
                    <g id="编组" transform="translate(5.741928, 3.062714)">
                        <rect id="矩形" fill="#696D71" x="0" y="1" width="1" height="16" rx="0.5"></rect>
                        <path d="M0.694782198,1.04451858 C0.575038783,1.10740422 0.500022355,1.23152247 0.5,1.36673389 L0.5,7.55647175 C0.5,7.59705479 0.506785883,7.6373522 0.520076955,7.67569709 C0.585921734,7.86566001 0.793279192,7.96626561 0.983254507,7.90039719 C1.77653219,7.62543198 2.57777202,7.48745632 3.38486824,7.48745632 C4.08619145,7.48745632 4.59919559,7.57829736 5.24560829,7.78228263 C5.3589542,7.81805064 5.80764607,7.96711283 5.92426751,8.00407102 C6.497638,8.18577637 7.00181191,8.30005932 7.67326468,8.37831287 C8.65578983,8.49281992 9.48590382,8.52618355 10.1609462,8.47981432 C10.3518558,8.46670058 10.5000093,8.30801805 10.5,8.11664794 L10.5,1.82487671 C10.4999206,1.81556604 10.4999206,1.81556604 10.4995238,1.80626348 C10.4892441,1.60548709 10.318154,1.45106542 10.1173702,1.46135287 C9.29432342,1.50349266 8.48091036,1.47777289 7.67741703,1.38413397 C7.10358193,1.31725936 6.70061395,1.21169273 5.99880017,0.976998868 C5.94425597,0.958742232 5.94425597,0.958742232 5.89008328,0.940600492 C4.91233577,0.613375944 4.36352971,0.5 3.38461538,0.5 C2.27600422,0.5 1.38040846,0.684448263 0.694782198,1.04451858 Z" id="矩形" stroke="#696D71"></path>
                    </g>
                </g>
            </g>
        </g>
    </g>
</svg>