<?xml version="1.0" standalone="no"?><!DOCTYPE svg PUBLIC "-//W3C//DTD SVG 1.1//EN" "http://www.w3.org/Graphics/SVG/1.1/DTD/svg11.dtd"><svg t="1581327904208" class="icon" viewBox="0 0 1024 1024" version="1.1" xmlns="http://www.w3.org/2000/svg" p-id="4093" xmlns:xlink="http://www.w3.org/1999/xlink" width="150" height="150"><defs><style type="text/css"></style></defs><path d="M608 219.733333c-12.8 0-25.6-8.533333-29.866667-21.333333-21.333333-61.866667-76.8-89.6-76.8-89.6-14.933333-8.533333-21.333333-27.733333-12.8-42.666667s27.733333-21.333333 42.666667-12.8c2.133333 0 76.8 38.4 108.8 123.733334 6.4 17.066667-2.133333 34.133333-19.2 40.533333-4.266667 2.133333-8.533333 2.133333-12.8 2.133333z" fill="#FF706F" p-id="4094"></path><path d="M674.133333 861.866667c-108.8 0-232.533333-53.333333-334.933333-155.733334-164.266667-164.266667-204.8-390.4-89.6-505.6 12.8-12.8 32-12.8 44.8 0s12.8 32 0 44.8C204.8 334.933333 245.333333 520.533333 384 661.333333c138.666667 138.666667 326.4 179.2 416 89.6 12.8-12.8 32-12.8 44.8 0s12.8 32 0 44.8c-42.666667 44.8-104.533333 66.133333-170.666667 66.133334z" p-id="4095" fill="#FF706F"></path><path d="M817.066667 810.666667c-8.533333 0-17.066667-2.133333-23.466667-8.533334-12.8-12.8-12.8-32 0-44.8l44.8-44.8c8.533333-8.533333 8.533333-21.333333 0-29.866666l-100.266667-100.266667c-8.533333-8.533333-21.333333-8.533333-29.866666 0l-44.8 42.666667c-34.133333 32-85.333333 32-117.333334-2.133334l-125.866666-125.866666c-17.066667-17.066667-25.6-36.266667-25.6-59.733334 0-23.466667 8.533333-44.8 25.6-59.733333l40.533333-40.533333c4.266667-4.266667 6.4-8.533333 6.4-14.933334 0-6.4-2.133333-10.666667-6.4-14.933333L362.666667 206.933333c-8.533333-8.533333-21.333333-8.533333-29.866667 0l-44.8 44.8c-12.8 12.8-32 12.8-44.8 0s-12.8-32 0-44.8l44.8-44.8c32-32 87.466667-32 119.466667 0l100.266666 100.266667c17.066667 17.066667 25.6 36.266667 25.6 59.733333 0 23.466667-8.533333 44.8-25.6 59.733334l-40.533333 40.533333c-4.266667 4.266667-6.4 8.533333-6.4 14.933333 0 6.4 2.133333 10.666667 6.4 14.933334l125.866667 125.866666c8.533333 8.533333 21.333333 8.533333 29.866666 0l44.8-42.666666c34.133333-32 85.333333-32 117.333334 2.133333l100.266666 100.266667c32 32 32 87.466667 0 119.466666l-44.8 44.8c-8.533333 6.4-17.066667 8.533333-23.466666 8.533334z" p-id="4096" fill="#FF706F"></path></svg>