<?xml version="1.0" encoding="UTF-8"?>
<svg width="12px" height="12px" viewBox="0 0 12 12" version="1.1" xmlns="http://www.w3.org/2000/svg" xmlns:xlink="http://www.w3.org/1999/xlink">
    <!-- Generator: Sketch 56.2 (81672) - https://sketch.com -->
    <title>编组</title>
    <desc>Created with Sketch.</desc>
    <g id="页面-1" stroke="none" stroke-width="1" fill="none" fill-rule="evenodd">
        <g id="iPhone-8备份-6" transform="translate(-80.000000, -723.000000)" fill="#3D90FF">
            <g id="编组-7" transform="translate(80.000000, 723.000000)">
                <g id="编组-6" transform="translate(1.000000, 0.000000)">
                    <path d="M6,10.8 C7.6,8.1254834 8.4,6.1254834 8.4,4.8 C8.4,2.8117749 7.9882251,1.2 6,1.2 C4.0117749,1.2 3.6,2.8117749 3.6,4.8 C3.6,6.1254834 4.4,8.1254834 6,10.8 Z" id="椭圆形" transform="translate(6.000000, 6.000000) rotate(-35.000000) translate(-6.000000, -6.000000) "></path>
                    <path d="M3.6,12 C4.4,10.6627417 4.8,9.6627417 4.8,9 C4.8,8.00588745 4.59411255,7.2 3.6,7.2 C2.60588745,7.2 2.4,8.00588745 2.4,9 C2.4,9.6627417 2.8,10.6627417 3.6,12 Z" id="椭圆形" transform="translate(3.600000, 9.600000) rotate(-70.000000) translate(-3.600000, -9.600000) "></path>
                </g>
            </g>
        </g>
    </g>
</svg>