<?xml version="1.0" encoding="UTF-8"?>
<svg width="22px" height="22px" viewBox="0 0 22 22" version="1.1" xmlns="http://www.w3.org/2000/svg" xmlns:xlink="http://www.w3.org/1999/xlink">
    <!-- Generator: Sketch 56.2 (81672) - https://sketch.com -->
    <title>首页</title>
    <desc>Created with Sketch.</desc>
    <g id="页面-1" stroke="none" stroke-width="1" fill="none" fill-rule="evenodd">
        <g id="首页" transform="translate(-83.000000, -242.000000)">
            <g id="编组-7" transform="translate(83.000000, 242.000000)">
                <g id="icon、">
                    <g id="编组" fill-rule="evenodd" transform="translate(5.270078, 5.021104)" fill="#FF706F">
                        <rect id="矩形" x="0" y="0.72" width="1.44" height="12.24" rx="0.72"></rect>
                        <path d="M2.55871304,0.485600227 C3.20801191,0.161866742 4.03510756,0 5.04,0 C6.87542923,0 7.37692345,0.56832116 8.74203301,0.72 C9.40751898,0.793942886 10.0815155,0.813815438 10.7640226,0.779617656 C11.1611424,0.759773386 11.4991999,1.0655699 11.5190979,1.46268702 C11.5196992,1.47468711 11.52,1.48670038 11.52,1.49871553 L11.52,6.56487596 C11.5199946,6.94374313 11.226381,7.25779137 10.8483697,7.28324393 C10.2426321,7.32402993 9.50650885,7.29628196 8.64,7.2 C6.81398977,6.99710324 6.49432651,6.48 5.04021516,6.48 C4.39226308,6.48 3.74848187,6.58722207 3.10887154,6.80166622 C2.73185312,6.92806626 2.32374985,6.72490391 2.19734612,6.34788673 C2.17261226,6.27411446 2.16,6.19682072 2.16,6.11901255 L2.16,1.12999221 C2.15995393,0.856965965 2.31437322,0.607425452 2.55871304,0.485600227 Z" id="矩形"></path>
                    </g>
                    <rect id="矩形" stroke="#F4F4F4" x="0.5" y="0.5" width="21" height="21" rx="4"></rect>
                </g>
            </g>
        </g>
    </g>
</svg>