<?xml version="1.0" encoding="UTF-8"?>
<svg width="25px" height="25px" viewBox="0 0 25 25" version="1.1" xmlns="http://www.w3.org/2000/svg" xmlns:xlink="http://www.w3.org/1999/xlink">
    <!-- Generator: Sketch 56.2 (81672) - https://sketch.com -->
    <title>首页</title>
    <desc>Created with Sketch.</desc>
    <defs>
        <filter x="-14.3%" y="-15.6%" width="128.6%" height="131.1%" filterUnits="objectBoundingBox" id="filter-1">
            <feGaussianBlur stdDeviation="1" in="SourceGraphic"></feGaussianBlur>
        </filter>
        <rect id="path-2" x="2.09573583" y="0.751071274" width="4" height="10" rx="2"></rect>
        <filter x="-300.0%" y="-120.0%" width="700.0%" height="340.0%" filterUnits="objectBoundingBox" id="filter-4">
            <feGaussianBlur stdDeviation="3" in="SourceGraphic"></feGaussianBlur>
        </filter>
        <circle id="path-5" cx="17.5" cy="8.21951887" r="2.5"></circle>
        <filter x="-60.0%" y="-60.0%" width="220.0%" height="220.0%" filterUnits="objectBoundingBox" id="filter-6">
            <feGaussianBlur stdDeviation="2" in="SourceAlpha" result="shadowBlurInner1"></feGaussianBlur>
            <feOffset dx="2" dy="0" in="shadowBlurInner1" result="shadowOffsetInner1"></feOffset>
            <feComposite in="shadowOffsetInner1" in2="SourceAlpha" operator="arithmetic" k2="-1" k3="1" result="shadowInnerInner1"></feComposite>
            <feColorMatrix values="0 0 0 0 1   0 0 0 0 0.46008003   0 0 0 0 0.46008003  0 0 0 0.5 0" type="matrix" in="shadowInnerInner1"></feColorMatrix>
        </filter>
        <path d="M11.9366943,2.71951887 L15.4125074,0.225157154 C15.9509484,-0.161246479 16.7006832,-0.037995779 17.0870869,0.500445298 C17.233438,0.704380921 17.312153,0.949076236 17.312153,1.20009097 L17.312153,15.442015 C17.312153,16.1047567 16.7748947,16.642015 16.112153,16.642015 C15.8498039,16.642015 15.5946832,16.5560401 15.3858453,16.3972516 L11.8641034,13.7195189 L5.5,13.7195189 C2.46243388,13.7195189 3.71994563e-16,11.257085 0,8.21951887 C-3.71994563e-16,5.18195274 2.46243388,2.71951887 5.5,2.71951887 L11.9366943,2.71951887 Z" id="path-7"></path>
        <filter x="-20.2%" y="-21.0%" width="140.4%" height="142.1%" filterUnits="objectBoundingBox" id="filter-8">
            <feGaussianBlur stdDeviation="1.5" in="SourceAlpha" result="shadowBlurInner1"></feGaussianBlur>
            <feOffset dx="2" dy="3" in="shadowBlurInner1" result="shadowOffsetInner1"></feOffset>
            <feComposite in="shadowOffsetInner1" in2="SourceAlpha" operator="arithmetic" k2="-1" k3="1" result="shadowInnerInner1"></feComposite>
            <feColorMatrix values="0 0 0 0 1   0 0 0 0 0.591594549   0 0 0 0 0.588738567  0 0 0 0.250491696 0" type="matrix" in="shadowInnerInner1" result="shadowMatrixInner1"></feColorMatrix>
            <feGaussianBlur stdDeviation="2.5" in="SourceAlpha" result="shadowBlurInner2"></feGaussianBlur>
            <feOffset dx="-2" dy="-2" in="shadowBlurInner2" result="shadowOffsetInner2"></feOffset>
            <feComposite in="shadowOffsetInner2" in2="SourceAlpha" operator="arithmetic" k2="-1" k3="1" result="shadowInnerInner2"></feComposite>
            <feColorMatrix values="0 0 0 0 1   0 0 0 0 0.516547706   0 0 0 0 0.513166921  0 0 0 0.37385271 0" type="matrix" in="shadowInnerInner2" result="shadowMatrixInner2"></feColorMatrix>
            <feMerge>
                <feMergeNode in="shadowMatrixInner1"></feMergeNode>
                <feMergeNode in="shadowMatrixInner2"></feMergeNode>
            </feMerge>
        </filter>
    </defs>
    <g id="页面-1" stroke="none" stroke-width="1" fill="none" fill-rule="evenodd">
        <g id="首页" transform="translate(-23.000000, -338.000000)">
            <g id="编组-9" transform="translate(23.000000, 338.000000)">
                <g id="icon/首页/发布需求">
                    <path d="M9.95072379,17.7195189 L11.0011815,20.6056277 C11.3789665,21.6435835 10.8437924,22.7912682 9.80583655,23.1690532 C8.76788074,23.5468383 7.62019604,23.0116641 7.24241102,21.9737083 L5.56686666,17.370188 C3.48297296,16.5877 2,14.5767929 2,12.2195189 C2,9.18195274 4.46243388,6.71951887 7.5,6.71951887 L14.9366943,6.71951887 L18.4125074,4.22515715 C18.9509484,3.83875352 19.7006832,3.96200422 20.0870869,4.5004453 C20.233438,4.70438092 20.312153,4.94907624 20.312153,5.20009097 L20.312153,9.72646999 C20.3741663,9.72186332 20.4368094,9.71951887 20.5,9.71951887 C21.8807119,9.71951887 23,10.838807 23,12.2195189 C23,13.6002307 21.8807119,14.7195189 20.5,14.7195189 C20.4368094,14.7195189 20.3741663,14.7171744 20.312153,14.7125677 L20.312153,19.442015 C20.312153,20.1047567 19.7748947,20.642015 19.112153,20.642015 C18.8498039,20.642015 18.5946832,20.5560401 18.3858453,20.3972516 L14.8641034,17.7195189 L9.95072379,17.7195189 Z" id="形状结合" fill="#DE5D5D" filter="url(#filter-1)"></path>
                    <g id="编组-2" stroke-width="1" transform="translate(2.558495, 3.312813)">
                        <g id="编组" transform="translate(1.000000, 8.719519)">
                            <mask id="mask-3" fill="white">
                                <use xlink:href="#path-2"></use>
                            </mask>
                            <use id="矩形" fill="#FFFFFF" transform="translate(4.095736, 5.751071) rotate(-20.000000) translate(-4.095736, -5.751071) " xlink:href="#path-2"></use>
                            <rect id="矩形" fill="#FF706F" filter="url(#filter-4)" mask="url(#mask-3)" transform="translate(3.500000, 3.750000) rotate(-20.000000) translate(-3.500000, -3.750000) " x="2" y="0" width="3" height="7.5" rx="1.5"></rect>
                        </g>
                        <g id="椭圆形">
                            <use fill="#FFFFFF" fill-rule="evenodd" xlink:href="#path-5"></use>
                            <use fill="black" fill-opacity="1" filter="url(#filter-6)" xlink:href="#path-5"></use>
                        </g>
                        <g id="形状结合">
                            <use fill="#FFFFFF" fill-rule="evenodd" xlink:href="#path-7"></use>
                            <use fill="black" fill-opacity="1" filter="url(#filter-8)" xlink:href="#path-7"></use>
                        </g>
                        <rect id="矩形" fill="#FF706F" x="3" y="5.71951887" width="1.5" height="5" rx="0.75"></rect>
                        <rect id="矩形备份" fill="#FF706F" x="6" y="4.71951887" width="1.5" height="7" rx="0.75"></rect>
                    </g>
                </g>
            </g>
        </g>
    </g>
</svg>