<?xml version="1.0" encoding="UTF-8"?>
<svg width="18px" height="18px" viewBox="0 0 18 18" version="1.1" xmlns="http://www.w3.org/2000/svg" xmlns:xlink="http://www.w3.org/1999/xlink">
    <!-- Generator: Sketch 56.2 (81672) - https://sketch.com -->
    <title>首页</title>
    <desc>Created with Sketch.</desc>
    <g id="页面-1" stroke="none" stroke-width="1" fill="none" fill-rule="evenodd">
        <g id="首页" transform="translate(-78.000000, -697.000000)" fill="#FF706F">
            <g id="编组-15" transform="translate(78.000000, 697.000000)">
                <g id="icon/首页/捐赠">
                    <g id="juanzeng" transform="translate(2.000000, 2.000000)">
                        <path d="M8.02672,8.69635 C8.10992,8.74627 8.20144,8.77955 8.28464,8.77955 C8.37616,8.77955 8.45936,8.75459 8.55088,8.69635 L8.56752,8.68803 C9.11664,8.31363 11.9288,6.33347 13.0104,4.35331 C13.30992,3.88739 13.468,3.36323 13.468,2.83075 C13.468,1.27491 12.20336,0.01027 10.64752,0.01027 C9.53264,0.01027 8.7256,0.88387 8.30128,1.37475 C7.90192,0.91715 7.0616,0.01027 5.95504,0.01027 C4.3992,0.01027 3.13456,1.27491 3.13456,2.83075 C3.13456,3.37987 3.29264,3.90403 3.58384,4.35331 C4.74864,6.54147 7.99344,8.67971 8.02672,8.69635 Z M10.63088,0.95043 C11.66256,0.95043 12.50288,1.79075 12.50288,2.82243 C12.50288,3.18851 12.40304,3.53795 12.20336,3.83747 C12.19504,3.84579 12.19504,3.85411 12.18672,3.86243 L12.1784,3.87075 C11.3464,5.41827 9.21648,7.04899 8.28464,7.71459 C7.3528,7.04899 5.21456,5.40995 4.39088,3.87075 L4.38256,3.85411 C4.38256,3.84579 4.37424,3.83747 4.36592,3.82915 C4.17456,3.52963 4.0664,3.17187 4.0664,2.81411 C4.0664,1.79075 4.90672,0.95043 5.9384,0.95043 C6.6872,0.95043 7.31952,1.69091 7.66064,2.09027 C7.87696,2.34819 8.02672,2.51459 8.28464,2.51459 C8.54256,2.51459 8.684,2.34819 8.90864,2.09859 C9.24976,1.69091 9.88208,0.95043 10.63088,0.95043 Z" id="形状" fill-rule="nonzero"></path>
                        <path d="M13.03536,8.46339 C12.86064,8.36355 12.6776,8.31363 12.50288,8.31363 C11.97872,8.31363 11.57104,8.72963 11.39632,8.91267 C10.9304,9.39523 10.36464,9.87779 10.10672,10.09411 C9.99856,10.05251 9.87376,10.02755 9.724,10.01923 C8.8504,9.96931 7.46096,9.81123 7.13648,9.61155 C6.7704,9.39523 6.4792,9.18723 6.22128,8.99587 L6.17968,8.96259 C5.40592,8.41347 4.79856,7.97251 3.29264,7.97251 C2.86832,7.97251 2.49392,8.08067 2.08624,8.20547 L2.04464,8.22211 C1.68688,8.33027 1.34576,8.43843 0.9464,8.43843 C0.43056,8.43843 0.00624,8.86275 0.00624,9.37859 L0.00624,11.56675 C0.00624,12.08259 0.43056,12.50691 0.9464,12.50691 C1.88656,12.50691 3.05136,12.55683 3.30096,12.63171 C3.80848,12.79811 5.0232,13.51363 5.40592,13.75491 L5.42256,13.77155 L5.43088,13.77155 C5.58896,13.85475 5.772,13.90467 5.95504,13.90467 L9.932,13.90467 C10.3896,13.90467 10.88048,13.49699 11.0552,13.20579 C11.2632,12.86467 11.83728,12.04099 13.37648,10.07747 C13.4264,10.01091 13.45968,9.96931 13.45968,9.96931 C13.45968,9.96099 13.468,9.96099 13.468,9.95267 C13.47632,9.93603 13.49296,9.91939 13.50128,9.89443 C13.7592,9.39523 13.55952,8.77123 13.03536,8.46339 Z M9.69072,11.29219 L6.71216,11.45027 C6.49584,11.44195 5.88848,11.00931 5.59728,10.80131 C5.54736,10.76803 5.50576,10.73475 5.45584,10.70147 C5.40592,10.66819 5.36432,10.63491 5.3144,10.60163 C5.07312,10.42691 4.89008,10.31875 4.74032,10.24387 C4.67376,10.21059 4.6072,10.19395 4.53232,10.19395 C4.3576,10.19395 4.1912,10.29379 4.108,10.45187 C3.99152,10.67651 4.08304,10.96771 4.316,11.09251 C4.47408,11.16739 4.67376,11.30883 4.89008,11.45859 C4.94832,11.50019 4.99824,11.53347 5.05648,11.57507 L5.08144,11.59171 C5.67216,12.00771 6.2296,12.39875 6.7288,12.39875 L9.70736,12.24067 C10.3064,12.23235 10.79728,11.74147 10.79728,11.14243 C10.79728,11.03427 10.78064,10.91779 10.74736,10.80963 C11.11344,10.51011 11.6376,10.04419 12.07024,9.59491 C12.26992,9.38691 12.40304,9.28707 12.49456,9.28707 C12.5112,9.28707 12.53616,9.29539 12.5528,9.30371 C12.61936,9.34531 12.6776,9.42019 12.66096,9.49507 C12.5112,9.68643 10.764,11.89955 10.2232,12.78147 C10.17328,12.86467 9.9736,13.00611 9.91536,13.01443 L5.9384,13.01443 C5.91344,13.01443 5.88848,13.00611 5.87184,12.99779 L5.86352,12.98947 C5.38096,12.68995 4.1912,11.98275 3.58384,11.78307 C3.068,11.61667 1.30416,11.60835 0.93808,11.60003 L0.93808,9.42851 C1.51216,9.42851 1.99472,9.27043 2.35248,9.16227 C2.68528,9.05411 2.96816,8.96259 3.276,8.96259 C4.49072,8.96259 4.92336,9.27043 5.63056,9.78627 L5.67216,9.81955 C5.9384,10.01091 6.24624,10.23555 6.62896,10.46851 C6.812,10.58499 7.11152,10.67651 7.56912,10.76803 C8.36784,10.92611 9.31632,10.98435 9.63248,11.00099 L9.6824,11.00099 C9.72216918,11.000825 9.76035716,11.0165502 9.78847846,11.0446715 C9.81659975,11.0727928 9.832325,11.1109808 9.83216,11.15075 C9.84048,11.22563 9.77392,11.29219 9.69072,11.29219 Z" id="形状" fill-rule="nonzero"></path>
                    </g>
                </g>
            </g>
        </g>
    </g>
</svg>