<?xml version="1.0" encoding="UTF-8"?>
<svg width="18px" height="18px" viewBox="0 0 18 18" version="1.1" xmlns="http://www.w3.org/2000/svg" xmlns:xlink="http://www.w3.org/1999/xlink">
    <!-- Generator: Sketch 56.2 (81672) - https://sketch.com -->
    <title>首页</title>
    <desc>Created with Sketch.</desc>
    <g id="页面-1" stroke="none" stroke-width="1" fill="none" fill-rule="evenodd" stroke-linecap="round">
        <g id="首页" transform="translate(-208.000000, -697.000000)" stroke="#4CA1FF">
            <g id="编组-16" transform="translate(203.000000, 692.000000)">
                <g id="icon/首页/联系医院" transform="translate(5.000000, 5.000000)">
                    <g id="编组-2" transform="translate(8.500000, 9.000000) rotate(45.000000) translate(-8.500000, -9.000000) translate(-1.000000, 0.000000)">
                        <path d="M7.79015724,7.65294903 C8.33901666,8.35615587 8.81093875,8.88909172 9.29115845,9.38626164 C9.88749486,10.0036468 10.6386474,10.64823 11.6646168,11.4020677 M16.0610584,14.3047667 C15.3316161,14.9458971 14.5542297,15.2120544 13.8140791,15.201167 C11.6643342,15.1695451 8.95150505,12.9944037 7.09779343,11.0889646 C5.2440818,9.18352549 4.08986427,7.71005424 4.05801699,5.55394521 C4.04706639,4.81257326 4.26454045,4.06598442 4.74615064,3.29468409" id="形状" transform="translate(10.059341, 9.248086) rotate(-41.000000) translate(-10.059341, -9.248086) "></path>
                        <path d="M2.05376927,8.29412307 C2.19110613,6.90285578 3.38673328,4.89904191 4.50324421,5.60140767 C5.5875604,6.28352062 6.62378423,7.56885729 7.23772714,9.0216333 C7.55248778,9.76645288 6.84224543,10.4012713 5.95529248,10.7387551" id="路径" transform="translate(4.683698, 8.097577) rotate(-37.000000) translate(-4.683698, -8.097577) "></path>
                        <path d="M13.016196,6.62239421 C13.4827123,5.86281088 14.1639069,5.37246571 14.7910795,5.77667765 C15.8588178,6.46483356 16.8774741,7.76466908 17.4791266,9.23555474 C17.943943,10.3719115 16.0815183,11.2193887 14.7956108,11.298685" id="路径" transform="translate(15.284076, 8.465073) rotate(-65.000000) translate(-15.284076, -8.465073) "></path>
                    </g>
                </g>
            </g>
        </g>
    </g>
</svg>