<?xml version="1.0" encoding="UTF-8"?>
<svg width="24px" height="24px" viewBox="0 0 24 24" version="1.1" xmlns="http://www.w3.org/2000/svg" xmlns:xlink="http://www.w3.org/1999/xlink">
    <!-- Generator: Sketch 56.2 (81672) - https://sketch.com -->
    <title>首页</title>
    <desc>Created with Sketch.</desc>
    <g id="页面-1" stroke="none" stroke-width="1" fill="none" fill-rule="evenodd">
        <g id="首页" transform="translate(-336.000000, -205.000000)">
            <g id="编组-6" transform="translate(334.000000, 204.000000)">
                <g id="电话" transform="translate(2.000000, 1.000000)">
                    <g id="编组" transform="translate(-1.775645, -0.582309)">
                        <circle id="Oval" fill="#4CA1FF" cx="13.7765" cy="12.6655" r="10.5545"></circle>
                        <g id="Group" transform="translate(13.235984, 13.378568) rotate(45.000000) translate(-13.235984, -13.378568) translate(3.735984, 4.378568)" fill="#FFFFFF">
                            <g id="编组-2" transform="translate(0.303734, 0.347386)">
                                <path d="M4.33270561,3 C5.92253755,5.50317928 7.29440182,7.35208164 8.4482984,8.54670709 C9.60219498,9.74133254 11.6408229,11.216951 14.5641821,12.9735624 C13.9009545,13.5564082 13.2329086,13.8428823 12.5600445,13.8329847 C10.6057309,13.8042375 8.13952259,11.8268363 6.4543302,10.0946189 C4.76913781,8.3624015 3.71984915,7.02288218 3.69089707,5.06278307 C3.68094198,4.38880856 3.89487816,3.70121421 4.33270561,3 Z" id="Path-6" transform="translate(9.127374, 8.416616) rotate(-41.000000) translate(-9.127374, -8.416616) "></path>
                                <path d="M4.15812178,5.04770868 C5.14386377,5.66781136 6.08588543,6.83629925 6.64401535,8.15700471 C7.07520773,9.17733726 5.39048066,9.97059378 4.22861251,9.95403728 C2.82768266,9.93407417 2.02017681,8.89901826 2.00021371,7.50953706 C1.98190768,6.23539274 3.14311184,4.40919435 4.15812178,5.04770868 Z" id="Path" transform="translate(4.356508, 7.435225) rotate(-37.000000) translate(-4.356508, -7.435225) "></path>
                                <path d="M13.5759079,5.50092501 C14.546579,6.1265213 15.4726302,7.30818995 16.019587,8.64535873 C16.4421474,9.67841029 14.7781325,10.4877972 13.6320831,10.4746031 C12.2502267,10.4586942 11.4565018,9.41187935 11.4405929,8.00332466 C11.4260045,6.71169009 12.5764163,4.85675397 13.5759079,5.50092501 Z" id="Path" transform="translate(13.763611, 7.921836) rotate(-65.000000) translate(-13.763611, -7.921836) "></path>
                            </g>
                        </g>
                    </g>
                </g>
            </g>
        </g>
    </g>
</svg>