<?xml version="1.0" encoding="UTF-8"?>
<svg width="24px" height="24px" viewBox="0 0 24 24" version="1.1" xmlns="http://www.w3.org/2000/svg" xmlns:xlink="http://www.w3.org/1999/xlink">
    <!-- Generator: Sketch 56.2 (81672) - https://sketch.com -->
    <title>首页</title>
    <desc>Created with Sketch.</desc>
    <g id="页面-1" stroke="none" stroke-width="1" fill="none" fill-rule="evenodd">
        <g id="首页" transform="translate(-292.000000, -205.000000)">
            <g id="编组-5" transform="translate(292.000000, 205.000000)">
                <g id="icon/首页/微信">
                    <g id="weixin" transform="translate(1.468310, 1.422640)">
                        <path d="M0,10.56 C0,16.392127 4.72787304,21.12 10.56,21.12 C16.392127,21.12 21.12,16.392127 21.12,10.56 C21.12,4.72787304 16.392127,0 10.56,0 C4.72787304,0 0,4.72787304 0,10.56 Z" id="路径" fill="#08BE14" fill-rule="nonzero"></path>
                        <path d="M12.5695144,7.12488563 C12.0005531,6.3398775 11.1633019,5.86572938 10.1357644,5.53676063 C9.92918438,5.47061625 9.74327063,5.48629125 9.51701438,5.43363563 C9.135885,5.34490688 8.36166375,5.31790875 7.94951438,5.41301063 C7.56702375,5.501265 7.17785063,5.56241813 6.83576438,5.70176063 C5.71392938,6.1587075 4.83942938,6.91092188 4.38138938,8.03238563 C4.17714,8.53250063 4.11454313,9.4331325 4.29888938,10.0123856 C4.58438063,10.9094906 5.22821063,11.7872081 6.01076438,12.1780106 C5.96976188,12.4503019 5.842815,12.7010194 5.76326438,12.9411356 C5.69924438,13.1343506 5.68926188,13.3687331 5.57763938,13.5186356 L5.57763938,13.5598856 C5.97069,13.3710225 6.3619875,13.1860575 6.75326438,12.9823856 C6.8868525,12.9128588 7.0411275,12.7771256 7.18638938,12.7348856 C7.29832125,12.7023394 7.6196175,12.833205 7.72263938,12.8586356 C8.11905188,12.9565013 8.5682025,12.9377738 9.04263938,12.9411356 C9.02931563,12.7871906 8.97331875,12.649725 8.93951438,12.5080106 C8.85905625,12.1703381 8.90022375,11.6230744 8.98076438,11.3323856 C9.3522,9.9924 10.3026,9.27980625 11.5588894,8.81613563 C11.9921794,8.65620938 12.653685,8.51560875 13.2295144,8.58926063 C13.2141281,7.98333938 12.8405888,7.49889938 12.5695144,7.12488563 Z M7.35138938,8.44488563 C6.8967525,8.59695375 6.376425,8.12992125 6.54701438,7.66113563 C6.6337425,7.4227725 6.815655,7.38723563 7.00076438,7.24863563 C7.38672,7.23756 7.61866875,7.33715813 7.74326438,7.57863563 C7.95081375,7.98094688 7.61402813,8.35702313 7.35138938,8.44488563 Z M10.5276394,8.44488563 C10.055595,8.61458813 9.57587812,8.12849813 9.70263938,7.68176063 C9.77610562,7.42295813 9.97666313,7.38311063 10.1770144,7.24863563 C11.0806369,7.22283375 11.2084087,8.20014938 10.5276394,8.44488563 Z" id="形状" fill="#FFFFFF" fill-rule="nonzero"></path>
                        <path d="M16.4882644,10.5898856 C15.7677094,9.428595 14.5725319,8.82917063 12.6520144,8.85738563 C12.5690606,8.90938125 12.4316569,8.87190563 12.3220144,8.89863563 C12.1526212,8.93992688 11.9627887,8.96508938 11.7857644,9.02238563 C11.2300444,9.2022975 10.7617331,9.47048438 10.3420144,9.78551063 C9.52039687,10.4021981 8.88982875,11.8367288 9.45513937,13.1473856 C9.758265,13.8501206 10.3334756,14.35335 10.9607644,14.7355106 C11.3316019,14.9614369 11.8128244,15.0710175 12.2807644,15.1892606 L12.5695144,15.2098856 C12.7634512,15.2533631 13.1284519,15.3039563 13.3738894,15.2511356 C13.6091381,15.2005219 13.8656512,15.2111438 14.0957644,15.1480106 C14.1637856,15.1293656 14.3010656,15.0462469 14.3845144,15.0655106 C14.5114819,15.0947569 14.6604769,15.23214 14.7763894,15.2923856 C15.0344494,15.4264894 15.5313675,15.5884369 15.7251394,15.7667606 L15.7457644,15.7667606 C15.7185806,15.5850544 15.632595,15.4282838 15.5807644,15.2717606 C15.5150119,15.0729769 15.50538,14.8351706 15.3951394,14.6736356 C15.4161769,14.5520306 15.9009675,14.2244644 16.0138894,14.1373856 C16.3181494,13.9027556 16.6824487,13.2520988 16.8182644,12.8380106 C17.0913806,12.0052763 16.8216056,11.1270844 16.4882644,10.5898856 Z M12.2601394,11.1261356 C12.1557975,11.2394494 12.1058025,11.3708513 11.9507644,11.4355106 C11.6322319,11.5683356 11.3041912,11.3425538 11.2495144,11.1261356 C11.0772956,10.8924956 11.342925,10.56627 11.4763894,10.4867606 L11.7032644,10.4248856 C12.129975,10.4453044 12.299925,10.69332 12.2601394,11.1261356 Z M14.0957644,11.3736356 C13.8884213,11.2352419 13.8173681,10.8436144 13.9926394,10.6105106 C14.0786456,10.4961244 14.2376025,10.5031163 14.3638894,10.4248856 C14.7565894,10.4376113 14.7572494,10.5961969 14.9413894,10.7961356 C14.9576831,11.304315 14.5489781,11.6761631 14.0957644,11.3736356 Z" id="形状" fill="#FFFFFF" fill-rule="nonzero"></path>
                    </g>
                </g>
            </g>
        </g>
    </g>
</svg>