<?xml version="1.0" encoding="UTF-8"?>
<svg width="24px" height="24px" viewBox="0 0 24 24" version="1.1" xmlns="http://www.w3.org/2000/svg" xmlns:xlink="http://www.w3.org/1999/xlink">
    <!-- Generator: Sketch 56.2 (81672) - https://sketch.com -->
    <title>首页</title>
    <desc>Created with Sketch.</desc>
    <g id="页面-1" stroke="none" stroke-width="1" fill="none" fill-rule="evenodd">
        <g id="首页" transform="translate(-176.000000, -1014.000000)" stroke="#2C2D2E">
            <g id="编组-19" transform="translate(176.000000, 1014.000000)">
                <g id="tab2">
                    <g id="Group" transform="translate(3.000000, 2.000000)">
                        <path d="M14.1040661,8.01379982 L15.0040661,8.01379982 L16.2578017,8.01379982 C17.2519142,8.01379982 18.0578017,8.81968727 18.0578017,9.81379982 L18.0578017,17.9137998 C18.0578017,18.9079124 17.2519142,19.7137998 16.2578017,19.7137998 L1.8,19.7137998 C0.80588745,19.7137998 3.4378828e-16,18.9079124 0,17.9137998 L0,9.81379982 C-1.21743675e-16,8.81968727 0.80588745,8.01379982 1.8,8.01379982 L3.30406613,8.01379982" id="Path" stroke-width="1.35" stroke-linejoin="round"></path>
                        <path d="M5.4928128,0.5 L12.692784,0.5 C13.6868965,0.5 14.492784,1.30588745 14.492784,2.3 C14.492784,2.30240052 14.4927792,2.30480104 14.4927696,2.30720154 L14.4529029,12.2716609 L9.41590784,14.3578834 C9.19614434,14.4489051 8.94928407,14.4492255 8.72928502,14.3587747 L4.21308736,12.5019762 C3.87440745,12.3627307 3.65386107,12.0321675 3.65532613,11.6659828 L3.69282721,2.29279846 C3.69679327,1.30150506 4.50151148,0.5 5.4928128,0.5 Z" id="Rectangle" stroke-width="1.35" stroke-linejoin="round"></path>
                        <g id="Group-3" transform="translate(6.895276, 5.167605)" stroke-linecap="round" stroke-width="1.26">
                            <path d="M0.227166432,4.05131273 L1.88251544,2.07949994 C2.04231165,1.88915445 2.32615758,1.86438937 2.51650307,2.02418558 C2.53651188,2.0409831 2.55501991,2.05949113 2.57181743,2.07949994 L4.22716643,4.05131273" id="Path" transform="translate(2.227166, 2.985069) rotate(180.000000) translate(-2.227166, -2.985069) "></path>
                            <path d="M2.20574279,0.869468178 C2.07000193,0.373115558 1.63752562,0.0102230483 1.125,0.0102230483 C0.503679656,0.0102230483 -2.84217094e-14,0.54353092 -2.84217094e-14,1.20139952 C-2.84217094e-14,1.45383805 0.0741630149,1.68793595 0.200677793,1.88059897" id="Path"></path>
                            <path d="M4.18849704,1.97299547 C4.36053126,1.76378169 4.4647034,1.49036004 4.4647034,1.19117647 C4.4647034,0.533307872 3.96102374,1.77635684e-15 3.3397034,1.77635684e-15 C2.82862415,1.77635684e-15 2.39714303,0.360847204 2.26011689,0.855046141" id="Shape"></path>
                        </g>
                    </g>
                </g>
            </g>
        </g>
    </g>
</svg>