<?xml version="1.0" encoding="UTF-8"?>
<svg width="18px" height="18px" viewBox="0 0 18 18" version="1.1" xmlns="http://www.w3.org/2000/svg" xmlns:xlink="http://www.w3.org/1999/xlink">
    <!-- Generator: Sketch 56.2 (81672) - https://sketch.com -->
    <title>编组 16</title>
    <desc>Created with Sketch.</desc>
    <g id="页面-1" stroke="none" stroke-width="1" fill="none" fill-rule="evenodd" stroke-linecap="round">
        <g id="首页" transform="translate(-324.000000, -697.000000)" stroke="#2C2D2E">
            <g id="编组-17" transform="translate(324.000000, 697.000000)">
                <g id="icon/首页/转发">
                    <g id="编组" transform="translate(2.409523, 2.373388)">
                        <path d="M7.61609782,9.69072612 L4.48671144,9.69072612 C4.21056907,9.69072612 3.98671144,9.46686849 3.98671144,9.19072612 C3.98671144,9.07869416 4.02433652,8.96990812 4.09355227,8.88181534 L9.56482035,3.19111052 C9.73542706,2.9739747 10.0497545,2.93625541 10.2668903,3.10686212 C10.2982306,3.13148665 10.3265142,3.1597702 10.3511387,3.19111052 L15.8224068,8.88181534 C15.9930135,9.09895116 15.9552942,9.41327858 15.7381584,9.58388529 C15.6500656,9.65310104 15.5412796,9.69072612 15.4292476,9.69072612 L12.2881895,9.69072612" id="路径" transform="translate(9.957990, 6.345363) rotate(90.000000) translate(-9.957990, -6.345363) "></path>
                        <path d="M6.54554026,8.57553993 C4.08515741,8.57553993 1.42512037,9.98593447 0.499252423,12.0041114 C0.178137002,11.3041544 0,10.5310882 0,9.71839707 C0,6.56248422 3.23183176,4.00411136 6.54554026,4.00411136" id="路径" stroke-width="1.1"></path>
                    </g>
                </g>
            </g>
        </g>
    </g>
</svg>