<?xml version="1.0" standalone="no"?><!DOCTYPE svg PUBLIC "-//W3C//DTD SVG 1.1//EN" "http://www.w3.org/Graphics/SVG/1.1/DTD/svg11.dtd"><svg t="1581485598407" class="icon" viewBox="0 0 1024 1024" version="1.1" xmlns="http://www.w3.org/2000/svg" p-id="3536" xmlns:xlink="http://www.w3.org/1999/xlink" width="150" height="150"><defs><style type="text/css"></style></defs><path d="M578.048 409.6c-1.792 5.376-4.096 10.496-5.888 15.872a621.568 621.568 0 0 0 55.552 140.288 550.912 550.912 0 0 0 45.824-156.16z" p-id="3537" fill="#e6e6e6"></path><path d="M512 18.944a491.52 491.52 0 1 0 491.52 491.52A492.032 492.032 0 0 0 512 18.944z m222.72 761.6a372.992 372.992 0 0 1-104.704-91.904 388.096 388.096 0 0 1-115.712 96 307.2 307.2 0 0 0-45.056-56.832 326.4 326.4 0 0 0 121.6-98.304 617.728 617.728 0 0 1-55.552-128 388.864 388.864 0 0 1-30.464 41.984 352 352 0 0 0-42.24-54.272v294.4h-69.12v-150.784c-93.184 32.768-111.872 43.264-125.184 53.76a264.448 264.448 0 0 0-26.88-63.744 43.008 43.008 0 0 0 21.76-41.472v-281.6h68.352v285.184l61.952-18.688V245.76h69.12v230.4c45.568-56.832 72.448-145.664 86.528-239.872l70.656 11.776c-5.888 32.768-12.288 65.536-20.48 96.512h179.2V409.6H742.4a675.328 675.328 0 0 1-72.448 219.904 334.848 334.848 0 0 0 111.616 92.928 240.128 240.128 0 0 0-47.36 58.368z" p-id="3538" fill="#56A6FF"></path></svg>