<?xml version="1.0" encoding="UTF-8"?>
<svg width="22px" height="22px" viewBox="0 0 22 22" version="1.1" xmlns="http://www.w3.org/2000/svg" xmlns:xlink="http://www.w3.org/1999/xlink">
    <!-- Generator: Sketch 56.2 (81672) - https://sketch.com -->
    <title>iPhone 8备份 5</title>
    <desc>Created with Sketch.</desc>
    <defs>
        <linearGradient x1="50%" y1="12.5489332%" x2="50%" y2="100%" id="linearGradient-1">
            <stop stop-color="#62B3FF" offset="0%"></stop>
            <stop stop-color="#3D90FF" offset="100%"></stop>
        </linearGradient>
        <path d="M4.5,2.20710678 C4.5,2.97140452 4.5,3.73570226 4.5,4.5 C4.5,4.77614237 4.27614237,5 4,5 L0.5,5 C0.223857625,5 0,4.77614237 0,4.5 L0,0.5 C0,0.223857625 0.223857625,0 0.5,0 L2.29289322,0 C2.42550146,-4.68448949e-16 2.55267842,0.0526784202 2.64644661,0.146446609 L4.35355339,1.85355339 C4.44732158,1.94732158 4.5,2.07449854 4.5,2.20710678 Z" id="path-2"></path>
    </defs>
    <g id="页面-1" stroke="none" stroke-width="1" fill="none" fill-rule="evenodd">
        <g id="iPhone-8备份-5" transform="translate(-56.000000, -603.000000)">
            <g id="编组-3" transform="translate(56.000000, 603.000000)">
                <g id="icon/运送">
                    <g id="编组-3">
                        <circle id="椭圆形" fill="url(#linearGradient-1)" cx="11" cy="11" r="11"></circle>
                        <g id="icon/物流转送" transform="translate(6.000000, 7.000000)">
                            <g id="icon/消息/车辆预警">
                                <g id="编组-2">
                                    <g id="编组" transform="translate(5.500000, 2.500000)">
                                        <mask id="mask-3" fill="white">
                                            <use xlink:href="#path-2"></use>
                                        </mask>
                                        <use id="路径" fill="#FFFFFF" xlink:href="#path-2"></use>
                                        <path d="M2.7,0.5 L4.5,0.5 L4.5,2 L2.7,2 C2.58954305,2 2.5,1.91045695 2.5,1.8 L2.5,0.7 C2.5,0.58954305 2.58954305,0.5 2.7,0.5 Z" id="矩形" fill="#B9D7FF" mask="url(#mask-3)"></path>
                                    </g>
                                    <rect id="矩形" fill="#FFFFFF" x="0" y="0" width="7" height="7.5" rx="0.5"></rect>
                                    <path d="M0,6 L7,6 L7,7 C7,7.27614237 6.77614237,7.5 6.5,7.5 L0.5,7.5 C0.223857625,7.5 3.38176876e-17,7.27614237 0,7 L0,6 Z" id="矩形" fill="#B9D7FF" opacity="0.400948661"></path>
                                    <circle id="椭圆形" stroke="#B9D7FF" stroke-width="0.75" fill="#FFFFFF" cx="2" cy="7.5" r="1"></circle>
                                    <circle id="椭圆形备份" stroke="#B9D7FF" stroke-width="0.75" fill="#FFFFFF" cx="7" cy="7.5" r="1"></circle>
                                </g>
                            </g>
                        </g>
                    </g>
                </g>
            </g>
        </g>
    </g>
</svg>