<?xml version="1.0" encoding="UTF-8"?>
<svg width="16px" height="16px" viewBox="0 0 16 16" version="1.1" xmlns="http://www.w3.org/2000/svg" xmlns:xlink="http://www.w3.org/1999/xlink">
    <!-- Generator: Sketch 56.2 (81672) - https://sketch.com -->
    <title>编组 9</title>
    <desc>Created with Sketch.</desc>
    <g id="页面-1" stroke="none" stroke-width="1" fill="none" fill-rule="evenodd">
        <g id="iPhone-8备份-6" transform="translate(-15.000000, -624.000000)">
            <g id="编组-10" transform="translate(15.000000, 624.000000)">
                <g id="icon/详情页/联系方式">
                    <rect id="矩形" fill="#3D90FF" x="0" y="0" width="16" height="16" rx="1.2"></rect>
                    <circle id="椭圆形" fill="#FFFFFF" cx="8" cy="8" r="6"></circle>
                    <g id="编组-3" stroke-width="1" transform="translate(8.000000, 8.000000) rotate(45.000000) translate(-8.000000, -8.000000) translate(3.000000, 3.000000)" fill="#FF706F">
                        <path d="M2.14373558,1.89528654 C3.09763474,3.3971941 3.9207533,4.50653552 4.61309125,5.22331079 C5.3054292,5.94008606 6.52860595,6.82545712 8.2826215,7.87942395 C7.88468491,8.22913146 7.48385737,8.40101594 7.08013889,8.39507738 C5.90755075,8.37782902 4.42782576,7.1913883 3.41671033,6.15205787 C2.4055949,5.11272744 1.7760217,4.30901585 1.75865046,3.13295638 C1.7526774,2.72857168 1.88103911,2.31601506 2.14373558,1.89528654 Z" id="Path-6" transform="translate(5.020536, 5.145256) rotate(-41.000000) translate(-5.020536, -5.145256) "></path>
                        <path d="M2.03898528,3.12391174 C2.63043047,3.49597335 3.19564347,4.19706608 3.53052142,4.98948936 C3.78923685,5.6016889 2.77840061,6.0776428 2.08127972,6.0677089 C1.24072181,6.05573104 0.756218298,5.43469749 0.744240435,4.60100877 C0.733256821,3.83652218 1.42997931,2.74080315 2.03898528,3.12391174 Z" id="Path" transform="translate(2.158017, 4.556422) rotate(-37.000000) translate(-2.158017, -4.556422) "></path>
                        <path d="M7.68965695,3.39584154 C8.27205962,3.77119932 8.82769036,4.48020051 9.15586443,5.28250177 C9.40940067,5.90233271 8.41099172,6.38796486 7.72336205,6.38004838 C6.89424823,6.37050303 6.41801329,5.74241415 6.40846794,4.89728134 C6.39971493,4.12230059 7.089962,3.00933892 7.68965695,3.39584154 Z" id="Path" transform="translate(7.802279, 4.848388) rotate(-65.000000) translate(-7.802279, -4.848388) "></path>
                    </g>
                </g>
            </g>
        </g>
    </g>
</svg>