<?xml version="1.0" encoding="UTF-8"?>
<svg width="24px" height="24px" viewBox="0 0 24 24" version="1.1" xmlns="http://www.w3.org/2000/svg" xmlns:xlink="http://www.w3.org/1999/xlink">
    <!-- Generator: Sketch 56.2 (81672) - https://sketch.com -->
    <title>编组</title>
    <desc>Created with Sketch.</desc>
    <g id="页面-1" stroke="none" stroke-width="1" fill="none" fill-rule="evenodd">
        <g id="iPhone-8备份-6" transform="translate(-102.000000, -750.000000)">
            <g id="编组-4" transform="translate(102.000000, 750.000000)">
                <g id="icon/微信">
                    <g id="weixin-3">
                        <path d="M7.44404269,7.66840109 C6.91489549,7.66840109 6.48734456,8.09595202 6.48734456,8.62509921 C6.48734456,9.15424641 6.91489549,9.58179734 7.44404269,9.58179734 C7.97318988,9.58179734 8.40074081,9.15212981 8.40074081,8.62509921 C8.40074081,8.09595202 7.97107329,7.66840109 7.44404269,7.66840109 Z M11.5100097,9.58179734 C12.0391569,9.58179734 12.4667078,9.15212981 12.4667078,8.62509921 C12.4667078,8.09595202 12.0391569,7.66840109 11.5100097,7.66840109 C10.9808625,7.66840109 10.5533116,8.09595202 10.5533116,8.62509921 C10.5533116,9.15424641 10.9808625,9.58179734 11.5100097,9.58179734 Z M13.6646971,12.2148338 C13.2667784,12.2148338 12.9471735,12.5344387 12.9471735,12.9323573 C12.9471735,13.330276 13.2667784,13.6498809 13.6646971,13.6498809 C14.0626158,13.6498809 14.3822207,13.330276 14.3822207,12.9323573 C14.3822207,12.5344387 14.0604992,12.2148338 13.6646971,12.2148338 Z" id="形状" fill="#48B134" fill-rule="nonzero"></path>
                        <path d="M11.9862422,0 C5.36555252,0 0,5.36555252 0,11.9862422 C0,18.6069318 5.36555252,23.9724844 11.9862422,23.9724844 C18.6069318,23.9724844 23.9724844,18.6069318 23.9724844,11.9862422 C23.9724844,5.3655525 18.6048152,0 11.9862422,0 Z M7.1985184,15.0870447 C6.98262635,15.3516183 6.12752449,15.9273305 5.28512215,16.0437428 C5.52852987,15.559044 5.8396684,15.1822912 6.05556045,14.2890907 C4.81312284,13.6435312 3.61301702,12.4794074 3.61301702,10.0918952 C3.61301702,7.30223123 6.29050181,5.03959786 9.59449687,5.03959786 C12.506923,5.03959786 14.9304172,6.79848312 15.4616809,9.12884735 C15.4235823,9.11614781 15.3812505,9.10979805 15.3346856,9.10768146 C12.4180263,8.94470412 9.83155481,11.2052209 9.83155481,13.8551901 C9.83155481,14.354705 9.79557281,14.9579328 10.0029985,15.4299321 C9.15847959,15.4828468 8.22083077,15.3833671 7.1985184,15.0870447 L7.1985184,15.0870447 Z M18.2068965,17.4809066 C18.1603316,17.6967986 18.4841697,18.5307346 18.6852456,18.9159538 C18.3296587,18.8355234 17.7560631,18.6344475 17.2501984,18.1984302 C12.8265279,19.0979804 10.3120205,16.6152218 10.3120205,14.1028309 C10.3120205,11.5840903 12.5619543,9.58814709 15.3368022,9.58814709 C18.1116501,9.58814709 20.3615839,11.5015433 20.3615839,13.8636564 C20.3594673,15.8828821 19.1868772,17.0321898 18.2068965,17.4809066 Z" id="形状" fill="#4BB134" fill-rule="nonzero"></path>
                        <path d="M16.773966,12.2148338 C16.3760473,12.2148338 16.0564424,12.5344387 16.0564424,12.9323573 C16.0564424,13.330276 16.3760473,13.6498809 16.773966,13.6498809 C17.1718846,13.6498809 17.4914895,13.330276 17.4914895,12.9323573 C17.4914895,12.5344387 17.1718846,12.2148338 16.773966,12.2148338 Z" id="路径" fill="#48B134" fill-rule="nonzero"></path>
                    </g>
                </g>
            </g>
        </g>
    </g>
</svg>