<?xml version="1.0" encoding="UTF-8"?>
<svg width="24px" height="24px" viewBox="0 0 24 24" version="1.1" xmlns="http://www.w3.org/2000/svg" xmlns:xlink="http://www.w3.org/1999/xlink">
    <!-- Generator: Sketch 56.2 (81672) - https://sketch.com -->
    <title>编组 4</title>
    <desc>Created with Sketch.</desc>
    <g id="页面-1" stroke="none" stroke-width="1" fill="none" fill-rule="evenodd">
        <g id="iPhone-8备份-6" transform="translate(-243.000000, -750.000000)">
            <g id="编组-3" transform="translate(243.000000, 750.000000)">
                <g id="朋友圈">
                    <g id="pengyouquan-3">
                        <path d="M11.9624982,0.00468658594 C11.512586,0.00468658594 11.0509575,0.0328061016 10.6151051,0.0773286563 C9.53250403,0.196836563 8.50145541,0.466315172 7.51492934,0.857644992 C7.51492934,0.857644992 15.5852281,8.83186877 15.7914378,9.13415348 L15.7914378,0.620972461 C15.5477354,0.548330391 15.3063763,0.473345039 15.0626739,0.388986516 C14.069118,0.135910945 13.035726,0.00468658594 11.9624982,0.00468658594 Z" id="路径" fill="#F95452" fill-rule="nonzero"></path>
                        <path d="M20.3866341,3.48213239 C20.0609164,3.15641475 19.7258257,2.86115993 19.3766751,2.58230815 C18.5120002,1.90275337 17.6028028,1.35676627 16.6303365,0.942003516 C16.6303365,0.942003516 16.6912621,12.2835384 16.6303365,12.649092 L22.6479112,6.63151727 C22.5401197,6.39953133 22.4065521,6.18160514 22.2823576,5.96367898 C21.7621467,5.06151143 21.1435175,4.22261278 20.3866341,3.48213239 L20.3866341,3.48213239 Z" id="路径" fill="#6467F0" fill-rule="nonzero"></path>
                        <path d="M23.0251812,7.56649092 C23.0251812,7.56649092 15.0509575,15.6367897 14.7486728,15.8429994 L23.2571672,15.8429994 C23.3298093,15.599297 23.4047946,15.3579379 23.4891531,15.1142355 C23.7562884,14.1277094 23.9015726,13.0966608 23.9015726,12.0304628 C23.9015726,11.5805507 23.8734531,11.1189221 23.8289305,10.6830697 C23.6836464,9.58406559 23.4282275,8.53661393 23.0251812,7.56649092 Z" id="路径" fill="#5283F0" fill-rule="nonzero"></path>
                        <path d="M11.1868684,16.7287639 L17.2044431,22.7463386 C17.436429,22.6385471 17.6496686,22.5026362 17.8839979,22.380785 C18.7721057,21.867604 19.5992879,21.2466315 20.3632012,20.4827182 C20.6889188,20.1570006 20.9841736,19.8219098 21.2630254,19.4727592 C21.9425802,18.6080844 22.4885673,17.6988869 22.90333,16.7264206 C22.90333,16.7287639 11.5500787,16.7943761 11.1868684,16.7287639 L11.1868684,16.7287639 Z" id="路径" fill="#00B1FE" fill-rule="nonzero"></path>
                        <path d="M8.11246887,14.8471002 L8.11246887,23.3555946 C8.35382798,23.4282367 8.61393342,23.503222 8.84123278,23.5875806 C9.82775885,23.8547159 10.8588075,24 11.9250055,24 C12.3749176,24 12.8365462,23.9718805 13.2723986,23.9273579 C14.3315667,23.80785 15.3743318,23.5383714 16.3725743,23.1470416 C16.3725743,23.125952 8.3186786,15.1376684 8.11246887,14.8471002 L8.11246887,14.8471002 Z" id="路径" fill="#65D020" fill-rule="nonzero"></path>
                        <path d="M7.25951046,11.3110721 L1.23959248,17.3263035 C1.34738393,17.5582894 1.48329488,17.7762156 1.60514609,18.0058582 C2.11832709,18.893966 2.73929958,19.7211482 3.50321288,20.4850615 C3.82893052,20.8107791 4.1640213,21.106034 4.51317188,21.3848858 C5.37784673,22.0644405 6.28704417,22.6104277 7.25951046,23.0251904 C7.25951046,23.0017575 7.19624156,11.6602226 7.25951046,11.3110721 L7.25951046,11.3110721 Z" id="路径" fill="#9AD122" fill-rule="nonzero"></path>
                        <path d="M0.403037133,8.89045109 C0.135901805,9.87697716 0.00233414062,10.9080258 0.00233414062,11.9742238 C0.00233414062,12.4241359 0.0304536562,12.8857645 0.0749762109,13.3216169 C0.194484117,14.4042179 0.463962727,15.4352666 0.855292547,16.4217926 C0.855292547,16.4217926 8.82951633,8.35149384 9.12477117,8.14528413 L0.635023078,8.14528413 C0.550664555,8.40538957 0.46396275,8.63503223 0.403037133,8.89045109 Z" id="路径" fill="#FFC817" fill-rule="nonzero"></path>
                        <path d="M5.94726677,1.64264791 C5.05915898,2.15582892 4.23197679,2.77680141 3.47977995,3.5407147 C3.1540623,3.86643234 2.85880748,4.20855302 2.5799557,4.5506737 C1.90040093,5.41534856 1.35441382,6.324546 0.93965107,7.29701231 C0.93965107,7.29701231 12.2929024,7.23608672 12.6467395,7.29701231 L6.61510507,1.28881078 C6.39014902,1.40597541 6.16519294,1.52079673 5.94726677,1.64264791 Z" id="路径" fill="#FF7612" fill-rule="nonzero"></path>
                    </g>
                </g>
            </g>
        </g>
    </g>
</svg>