<?xml version="1.0" encoding="UTF-8"?>
<svg width="22px" height="22px" viewBox="0 0 22 22" version="1.1" xmlns="http://www.w3.org/2000/svg" xmlns:xlink="http://www.w3.org/1999/xlink">
    <!-- Generator: Sketch 56.2 (81672) - https://sketch.com -->
    <title>编组 4</title>
    <desc>Created with Sketch.</desc>
    <g id="页面-1" stroke="none" stroke-width="1" fill="none" fill-rule="evenodd">
        <g id="iPhone-8" transform="translate(-111.000000, -1139.000000)">
            <g id="编组-5" transform="translate(111.000000, 1139.000000)">
                <g id="icon/第三页/物资名称">
                    <path d="M7.21734858,6.07108597 C7.11423982,6.16577761 7.05555092,6.29935848 7.05555092,6.43935106 L7.05555092,19 C7.05555092,19.2761424 7.27940855,19.5 7.55555092,19.5 L16.2326529,19.5 C16.5087953,19.5 16.7326529,19.2761424 16.7326529,19 L16.7326529,6.42759347 C16.7326529,6.29104208 16.6768048,6.16043169 16.5780785,6.066095 L12.3318635,2.00867414 C12.1413654,1.82664595 11.8422994,1.82368576 11.6482356,2.00190752 L7.21734858,6.07108597 Z" id="矩形" stroke="#696D71" stroke-width="1" transform="translate(11.894102, 10.500000) rotate(45.000000) translate(-11.894102, -10.500000) "></path>
                    <rect id="矩形" stroke="#696D71" stroke-width="1" fill="#D8D8D8" fill-rule="evenodd" transform="translate(8.779137, 13.606731) rotate(45.000000) translate(-8.779137, -13.606731) " x="4.77913709" y="13.6067305" width="8" height="1"></rect>
                    <circle id="椭圆形" fill="#696D71" fill-rule="evenodd" cx="14.986958" cy="7.62476329" r="1"></circle>
                </g>
            </g>
        </g>
    </g>
</svg>